PathFileType	3	(X/Y/Z)	RCH0000002 BBF 05.c3d
DataRate	CameraRate	NumFrames	NumMarkers	Units	OrigDataRate	OrigDataStartFrame	OrigNumFrames
100.0	100.0	9	23	mm	100.0	379	252
Frame#	Time	T2			T10			MAN			LASI			RASI			LPSI			RPSI			LPAT			LKNE			LANK			LMED			LHEE			LTOE			RPAT			RKNE			RANK			RMED			RHEE			RTOE			RTHI			LTHI			RTIB			LTIB			
		X1	Y1	Z1	X2	Y2	Z2	X3	Y3	Z3	X4	Y4	Z4	X5	Y5	Z5	X6	Y6	Z6	X7	Y7	Z7	X8	Y8	Z8	X9	Y9	Z9	X10	Y10	Z10	X11	Y11	Z11	X12	Y12	Z12	X13	Y13	Z13	X14	Y14	Z14	X15	Y15	Z15	X16	Y16	Z16	X17	Y17	Z17	X18	Y18	Z18	X19	Y19	Z19	X20	Y20	Z20	X21	Y21	Z21	X22	Y22	Z22	X23	Y23	Z23	

379	3.780	1187.68125	-8.53000	970.39487	1235.49489	-32.13105	792.13187	1326.81754	2.02859	972.44877	1333.52737	54.87072	656.10860	1340.06506	-122.18417	654.01385	1226.05716	-2.26800	707.02373	1228.93352	-73.44583	706.50756	1340.75930	22.21827	383.12196	1301.45705	84.66999	346.20180	1238.63004	105.24648	78.02535	1237.25394	35.40733	92.37532	1197.58106	66.05346	108.92634	1284.78832	66.65824	70.08087	1333.69072	-71.52017	353.09352	1275.41867	-121.52709	334.29207	1087.81845	-135.52040	138.36882	1085.33999	-67.02925	151.28779	1072.31434	-104.31740	190.85749	1110.50814	-99.15482	98.19117	1302.97576	-191.85750	441.76447	1299.25304	148.96610	473.97117	1196.48669	-193.11197	256.06711	1277.23415	157.14948	236.62579	
380	3.790	1197.69807	-8.45083	973.00845	1244.50309	-31.62784	794.38328	1336.69043	0.91064	974.61865	1342.14839	56.03315	658.02923	1349.81794	-121.01142	656.28695	1235.24553	-1.99746	708.99525	1238.36390	-73.05809	708.25389	1343.53926	22.94022	383.38995	1303.29783	85.36143	347.14806	1238.67864	104.34256	79.13666	1238.43410	34.59321	93.57318	1198.33370	64.66503	110.36385	1285.32516	66.33589	70.67976	1355.11916	-70.86659	357.41929	1296.71981	-120.33841	336.77694	1110.58857	-132.81040	139.97815	1108.72760	-64.14661	152.60101	1094.37029	-101.19164	191.99159	1135.41263	-97.04358	100.78317	1319.30348	-191.17403	444.93182	1304.07604	149.72841	474.97718	1217.78955	-191.27886	258.58695	1276.91951	157.30908	237.44956	
381	3.800	1207.71300	-8.16685	975.22295	1253.26064	-31.02804	796.17952	1346.56738	-0.24469	976.20544	1350.56565	57.07623	659.51819	1359.30939	-119.95002	658.16693	1244.14614	-1.81402	710.40607	1247.48798	-72.73680	709.47798	1346.66414	23.76293	383.45780	1305.47918	86.08952	347.89629	1238.91109	103.71353	80.11367	1239.66523	34.04364	94.67450	1199.23921	63.64383	111.72360	1285.95649	66.17740	71.15648	1376.77518	-70.48516	362.05571	1318.39185	-119.40577	339.41139	1134.36148	-130.22966	141.13880	1132.99096	-61.44921	153.61106	1117.30013	-98.32913	192.71964	1161.23352	-94.93948	103.07314	1335.65978	-190.71738	448.11967	1308.90131	150.46132	475.75860	1239.83130	-189.64228	260.85942	1277.08539	157.59003	238.13586	
382	3.810	1217.76550	-7.70048	977.00676	1261.80925	-30.39509	797.50243	1356.48526	-1.42487	977.16927	1358.78811	58.01380	660.59140	1368.57769	-118.98677	659.57072	1252.76483	-1.75760	711.24102	1256.32627	-72.52246	710.12742	1350.13879	24.80452	383.30988	1308.01209	86.98087	348.44865	1239.37921	103.51379	80.93817	1240.91888	33.91674	95.69058	1200.30488	63.20224	113.00448	1286.68855	66.28546	71.50511	1398.56058	-70.31114	366.97314	1340.39606	-118.70388	342.17706	1159.07648	-127.85124	141.88834	1158.06242	-59.00289	154.32317	1141.05847	-95.78586	193.05464	1187.87187	-92.92732	105.06683	1352.10796	-190.43848	451.27423	1313.73980	151.25167	476.34515	1262.57926	-188.21459	262.88944	1277.84482	158.13975	238.66043	
383	3.820	1227.89280	-7.09285	978.34994	1270.19138	-29.78960	798.35537	1366.47755	-2.62459	977.49533	1366.83491	58.85909	661.27854	1377.66046	-118.10884	660.44552	1261.11985	-1.85207	711.50859	1264.90643	-72.43962	710.17625	1353.92867	26.12870	382.94120	1310.88000	88.11948	348.81535	1240.10187	103.83218	81.59881	1242.16702	34.30668	96.62931	1201.51964	63.46476	114.20207	1287.51625	66.72244	71.72583	1420.35498	-70.28311	372.14345	1362.65986	-118.20248	345.06597	1184.66113	-125.73874	142.27061	1183.88316	-56.85725	154.73213	1165.58500	-93.58978	193.00132	1215.24904	-91.09889	106.77968	1368.67769	-190.28837	454.36074	1318.61981	152.16071	476.76456	1285.94334	-187.00313	264.71593	1279.23865	159.05474	239.00681	
384	3.830	1238.12805	-6.39977	979.26052	1278.45139	-29.26529	798.75948	1376.57314	-3.84493	977.19317	1374.73776	59.62268	661.61861	1386.59576	-117.30601	660.76911	1269.24477	-2.10436	711.23933	1273.26555	-72.49637	709.62539	1357.97181	27.74761	382.35829	1314.04366	89.54266	349.01377	1241.06268	104.68595	82.09305	1243.38420	35.23707	97.49596	1202.85563	64.45882	115.31151	1288.42246	67.50645	71.82480	1442.01756	-70.35168	377.53231	1385.07173	-117.87017	348.07287	1211.03935	-123.94285	142.32042	1210.40617	-55.04534	154.81582	1190.81232	-91.74446	192.54641	1243.30664	-89.54302	108.22516	1385.35113	-190.22400	457.35692	1323.58156	153.22174	477.03948	1309.78226	-186.01114	266.39478	1281.23440	160.37348	239.16865	
385	3.840	1248.49884	-5.68692	979.76016	1286.63664	-28.86634	798.74931	1386.79561	-5.09214	976.29459	1382.54157	60.31141	661.65548	1395.42380	-116.57208	660.54769	1277.18969	-2.50567	710.48261	1281.45178	-72.68592	708.50118	1362.19370	29.63093	381.57824	1317.44836	91.24344	349.06698	1242.21389	106.02533	82.42861	1244.54998	36.66435	98.29467	1204.27283	66.11978	116.33064	1289.37977	68.61360	71.81386	1463.39115	-70.48376	383.09054	1407.48123	-117.67672	351.18532	1238.13815	-122.49945	142.05146	1237.59369	-53.58522	154.53260	1216.67126	-90.23691	191.65310	1272.00206	-88.33471	109.40508	1402.05819	-190.21161	460.24325	1328.66910	154.44134	477.18623	1333.91859	-185.23854	267.97755	1283.73597	162.07762	239.15158	
386	3.850	1259.02627	-5.02475	979.87949	1294.79811	-28.62596	798.36797	1397.16278	-6.37596	974.85041	1390.30343	60.92817	661.43339	1404.18893	-115.90520	659.81179	1285.02051	-3.03466	709.30176	1289.52493	-72.98997	706.85202	1366.52321	31.71822	380.62571	1321.03369	93.17756	349.00105	1243.48523	107.74674	82.62414	1245.65121	38.48971	99.03021	1205.72564	68.30798	117.26291	1290.35451	69.98530	71.70985	1484.30866	-70.66170	388.74590	1429.70469	-117.59390	354.37350	1265.89059	-121.42942	141.44960	1265.40904	-52.48308	153.82323	1243.09243	-89.04742	190.26091	1301.29943	-87.52555	110.30360	1418.68214	-190.22757	462.99227	1333.92245	155.80301	477.21458	1358.15938	-184.68234	269.49030	1286.60265	164.10026	238.97384	
387	3.860	1269.72437	-4.48358	979.65373	1302.99051	-28.56633	797.66238	1407.68669	-7.70788	972.92635	1398.08993	61.47240	660.99306	1412.94152	-115.30733	658.61067	1292.81640	-3.66193	707.76809	1297.55601	-73.38318	704.74338	1370.90750	33.93151	379.52866	1324.74516	95.27299	348.84159	1244.79625	109.71175	82.70891	1246.68387	40.57669	99.70961	1207.17062	70.83402	118.11955	1291.31201	71.53891	71.53354	1504.60172	-70.87738	394.39687	1451.53629	-117.59445	357.58157	1294.23319	-120.73987	140.47283	1293.80348	-51.73683	152.61654	1270.00266	-88.15934	188.29113	1331.15641	-87.13729	110.88540	1435.07509	-190.25665	465.55960	1339.37270	157.27193	477.12823	1382.31791	-184.33625	270.91763	1289.67458	166.33907	238.66535	
